<?xml version="1.0" standalone="no"?>
<!DOCTYPE svg PUBLIC "-//W3C//DTD SVG 20010904//EN"
 "http://www.w3.org/TR/2001/REC-SVG-20010904/DTD/svg10.dtd">
<svg version="1.0" xmlns="http://www.w3.org/2000/svg"
 width="500.000000pt" height="500.000000pt" viewBox="0 0 500.000000 500.000000"
 preserveAspectRatio="xMidYMid meet">
<metadata>
Created by potrace 1.14, written by Peter Selinger 2001-2017
</metadata>
<g transform="translate(0.000000,500.000000) scale(0.100000,-0.100000)"
fill="#000000" stroke="none">
<path d="M2320 4834 c-19 -2 -73 -9 -120 -15 -422 -51 -837 -229 -1175 -504
-102 -83 -273 -256 -357 -360 -238 -298 -406 -674 -475 -1065 -43 -245 -35
-675 16 -868 l7 -27 1113 -3 c946 -2 1112 0 1117 12 3 8 0 49 -5 92 -14 101
-52 179 -108 221 -93 70 -188 54 -435 -72 -92 -47 -170 -85 -174 -85 -3 0 28
23 70 51 90 60 103 75 56 65 -19 -3 -59 -9 -89 -11 -47 -4 -42 -2 32 14 83 18
143 43 267 110 30 17 75 33 100 37 74 11 76 17 18 56 -40 26 -82 42 -173 63
-66 15 -183 45 -260 66 -137 37 -142 38 -190 24 -26 -8 -58 -15 -69 -14 -12 0
0 7 27 15 26 8 47 18 47 22 0 4 -28 15 -62 25 -35 10 -76 25 -93 33 -16 8 -21
12 -11 9 11 -3 73 -21 139 -40 138 -40 408 -98 434 -93 12 2 -25 30 -102 77
-248 153 -372 255 -444 366 l-33 50 37 -43 c84 -96 352 -291 585 -424 185
-106 402 -220 408 -214 5 6 -20 162 -39 238 -8 30 -16 39 -47 49 -103 33 -422
202 -422 224 0 2 42 -18 93 -45 108 -57 257 -117 316 -126 l40 -6 -48 108
c-27 60 -68 162 -92 226 l-44 118 -150 77 c-178 93 -365 214 -420 274 -24 27
-28 34 -10 18 64 -57 178 -125 360 -215 104 -52 196 -94 203 -94 10 0 12 6 7
18 -17 41 -75 229 -91 298 -17 70 -21 78 -63 109 -26 18 -64 53 -86 76 l-40
43 37 -31 c20 -17 57 -45 83 -63 38 -26 46 -29 41 -14 -11 37 -28 166 -22 171
3 4 6 -3 6 -14 0 -22 68 -302 77 -317 3 -5 25 22 49 59 56 87 58 71 3 -20
l-42 -69 23 -70 c32 -103 100 -276 108 -276 19 0 99 153 124 235 17 56 17 57
12 15 -10 -74 -41 -161 -82 -231 l-39 -66 44 -89 c25 -49 65 -125 91 -168 l46
-79 23 108 c28 135 72 276 175 562 l80 222 -51 61 c-66 79 -66 88 0 16 28 -31
55 -54 59 -51 4 3 11 21 15 41 3 20 9 34 11 31 9 -9 -35 -172 -82 -307 -24
-68 -42 -126 -40 -127 1 -2 78 67 169 152 92 86 167 153 167 149 0 -4 -81 -88
-179 -188 l-179 -181 -21 -85 c-27 -113 -49 -242 -60 -371 -9 -97 -8 -119 14
-235 14 -71 28 -137 31 -147 5 -15 20 -5 87 60 l82 78 -3 130 c-1 72 2 146 7
165 8 29 9 22 10 -49 1 -90 19 -214 30 -209 36 16 192 120 216 144 43 44 91
128 137 241 40 96 40 99 29 159 -6 34 -11 86 -10 115 l1 54 13 -74 c17 -94 28
-104 49 -49 21 51 88 158 117 184 14 13 8 -2 -16 -43 -30 -50 -125 -263 -125
-279 0 -2 19 -5 43 -6 l42 -1 -45 -6 -44 -6 -33 -78 c-17 -43 -44 -101 -58
-129 -14 -27 -25 -52 -23 -54 2 -2 71 23 153 55 83 32 211 81 285 110 l135 52
18 61 c10 33 20 59 22 56 2 -2 -2 -26 -10 -53 -8 -26 -13 -50 -11 -52 2 -2 47
18 100 45 53 27 96 48 96 47 0 -5 -104 -81 -144 -105 -22 -13 -80 -41 -130
-61 l-90 -37 68 -21 c38 -12 75 -21 84 -21 8 0 12 -3 9 -6 -3 -4 -49 3 -101
15 l-95 22 -153 -60 c-84 -34 -187 -80 -228 -103 -68 -38 -72 -42 -50 -50 48
-18 299 -78 405 -97 61 -10 97 -20 80 -20 -43 -1 -195 25 -383 65 l-164 35
-51 -40 c-126 -97 -243 -228 -272 -305 -14 -37 -15 -52 -5 -100 l12 -57 36 32
c52 46 123 75 248 103 60 14 118 27 129 31 14 4 12 2 -5 -8 l-25 -15 25 -5
c14 -3 63 -11 110 -17 47 -6 139 -20 205 -30 l120 -20 -137 5 c-83 3 -138 2
-138 -4 0 -5 24 -31 53 -57 62 -57 16 -31 -61 34 l-52 45 -86 -7 c-143 -12
-237 -50 -296 -121 -28 -33 -58 -88 -58 -105 0 -7 94 -10 288 -10 l288 0 -4
40 c-3 30 0 40 10 40 19 0 55 -34 63 -60 7 -23 45 -28 45 -5 0 19 17 19 54 0
37 -20 63 -20 47 -1 -20 24 49 30 101 9 39 -16 91 -18 602 -18 l560 0 7 27
c45 170 59 592 26 808 -127 822 -654 1506 -1407 1825 -180 76 -365 128 -570
160 -100 15 -445 28 -520 19z m353 -404 c0 -46 -20 -61 -44 -31 -21 26 -24 53
-8 83 l11 20 21 -20 c12 -12 20 -34 20 -52z m-262 47 c25 -19 41 -56 34 -77
-8 -26 -17 -25 -49 5 -17 16 -26 34 -26 55 0 32 14 38 41 17z m368 -59 c52
-71 60 -147 22 -208 -22 -33 -101 83 -101 148 0 38 24 102 39 102 5 0 23 -19
40 -42z m-474 -44 c-6 -37 -61 -104 -84 -104 -17 0 -24 46 -11 84 6 19 28 49
48 67 35 31 36 31 45 11 5 -11 6 -38 2 -58z m283 32 c33 -72 19 -157 -33 -206
-32 -30 -50 -16 -63 47 -12 54 0 104 34 151 30 38 47 41 62 8z m-582 -73 c21
-44 22 -99 4 -143 -16 -39 -34 -36 -74 13 -27 34 -31 47 -30 95 0 32 6 70 12
85 l12 28 29 -20 c16 -11 37 -38 47 -58z m164 46 c15 -27 13 -59 -4 -53 -15 6
-36 46 -36 69 0 19 28 8 40 -16z m778 8 c6 -31 -19 -77 -51 -93 -36 -19 -50
-5 -42 41 10 56 84 98 93 52z m203 -46 c22 -23 29 -39 29 -70 0 -22 -4 -42 -8
-45 -12 -7 -68 53 -77 82 -7 26 2 62 16 62 6 0 24 -13 40 -29z m-1051 0 c15
-29 12 -73 -7 -100 -15 -23 -17 -23 -30 -6 -23 33 -11 125 17 125 5 0 14 -9
20 -19z m320 14 c0 -3 -6 -21 -14 -40 -13 -30 -58 -65 -86 -65 -14 0 -2 50 19
74 22 25 81 48 81 31z m-582 -25 c23 -21 31 -80 11 -80 -36 0 -75 52 -63 85 8
21 26 19 52 -5z m1231 -69 c11 -27 21 -61 21 -76 0 -35 -23 -86 -48 -108 -20
-19 -21 -18 -42 23 -30 59 -29 121 4 171 15 21 30 39 35 39 5 0 18 -22 30 -49z
m241 -21 c4 -50 0 -68 -26 -95 -28 -31 -36 -27 -54 28 -14 45 0 99 33 122 20
14 22 13 33 -8 7 -12 13 -33 14 -47z m-1570 -25 c24 -39 26 -92 5 -142 l-15
-36 -35 33 c-55 53 -68 129 -34 192 9 17 11 17 34 2 14 -9 34 -31 45 -49z
m439 -35 c0 -19 -8 -53 -18 -75 -19 -44 -86 -108 -104 -102 -7 2 -13 27 -15
56 -4 64 29 127 86 166 34 23 37 24 44 8 3 -10 7 -34 7 -53z m747 38 c-8 -40
-32 -65 -74 -77 -38 -11 -42 -6 -30 37 9 34 57 72 92 72 16 0 17 -5 12 -32z
m-191 -13 c28 -27 35 -85 11 -85 -19 0 -66 57 -66 79 0 38 22 40 55 6z m-833
-42 c15 -15 32 -41 38 -58 12 -31 5 -110 -9 -120 -14 -8 -74 38 -98 74 -23 34
-30 90 -17 138 6 21 8 21 33 9 14 -8 38 -27 53 -43z m571 6 c9 -12 17 -35 17
-51 0 -26 -3 -29 -22 -22 -57 18 -88 53 -88 98 l0 26 38 -15 c20 -9 45 -25 55
-36z m-155 17 c8 -38 -10 -88 -44 -121 -42 -43 -51 -43 -59 -6 -8 37 17 99 53
128 30 26 45 25 50 -1z m1085 8 c12 -12 -17 -66 -40 -75 -48 -18 -59 16 -18
56 23 24 45 31 58 19z m-746 -77 c-4 -42 -10 -56 -41 -84 -19 -18 -40 -33 -45
-33 -14 0 -20 49 -10 86 10 35 76 97 92 87 5 -3 7 -28 4 -56z m543 30 c11 -19
12 -33 4 -54 -12 -35 -24 -34 -47 4 -14 24 -15 36 -7 58 12 31 29 29 50 -8z
m-1592 -10 c12 -11 22 -31 22 -45 0 -21 -3 -23 -27 -17 -16 4 -34 12 -41 18
-18 15 -34 56 -26 68 8 13 44 1 72 -24z m1362 -12 c0 -31 -53 -76 -99 -82 -42
-6 -43 -5 -36 18 10 34 25 50 60 65 41 18 75 17 75 -1z m510 -47 c29 -48 26
-101 -8 -139 l-28 -31 -19 28 c-29 45 -32 113 -5 147 28 35 36 34 60 -5z
m-755 -8 c21 -22 29 -40 29 -65 0 -55 -17 -63 -53 -27 -31 30 -39 68 -25 106
9 22 16 20 49 -14z m-1173 -12 c11 -32 -15 -102 -34 -96 -26 9 -33 55 -15 94
19 40 36 41 49 2z m1828 20 c0 -6 -10 -22 -22 -35 -16 -17 -32 -23 -65 -23
-51 0 -57 18 -17 49 29 23 104 30 104 9z m-230 -86 c0 -33 -22 -72 -42 -72
-15 0 -39 70 -32 93 3 12 14 30 22 40 16 18 17 18 34 -3 10 -12 18 -38 18 -58z
m445 48 c17 -33 13 -61 -10 -80 -23 -19 -49 49 -33 85 15 33 24 32 43 -5z
m-2171 -9 c38 -40 48 -91 30 -153 -8 -27 -22 -52 -30 -55 -21 -8 -51 23 -69
72 -14 35 -15 49 -5 86 14 51 27 79 38 79 5 0 21 -13 36 -29z m926 8 c0 -31
-17 -57 -50 -74 -43 -22 -53 -19 -45 13 8 32 32 61 60 73 31 12 35 11 35 -12z
m122 1 c14 -11 28 -29 31 -41 5 -19 3 -21 -26 -15 -42 8 -73 30 -80 55 -4 18
0 21 23 21 15 0 39 -9 52 -20z m-619 -75 c0 -42 -18 -51 -38 -21 -15 22 -16
31 -6 53 11 24 13 25 28 11 8 -9 16 -28 16 -43z m1107 41 c0 -26 -42 -66 -81
-76 -22 -6 -43 -8 -48 -5 -15 9 0 44 31 70 33 28 98 35 98 11z m-1253 -40 l28
-24 -30 -12 c-40 -15 -92 -6 -122 22 -22 21 -23 23 -6 29 41 17 101 9 130 -15z
m488 -19 c8 -12 15 -34 15 -49 0 -26 -1 -26 -30 -16 -37 12 -60 43 -60 80 0
26 1 26 30 16 17 -5 37 -20 45 -31z m1175 33 c13 -9 12 -13 -9 -30 -25 -22
-95 -27 -121 -10 -13 9 -12 13 9 30 25 22 95 27 121 10z m-960 -22 c-1 -21
-36 -92 -52 -105 -8 -7 -31 -19 -51 -28 l-37 -15 0 28 c0 16 10 44 23 63 32
48 117 89 117 57z m278 -23 c32 -27 48 -71 37 -105 -6 -20 -8 -21 -33 -4 -43
26 -62 56 -62 97 0 45 15 48 58 12z m361 -1 c24 -31 28 -91 8 -118 -13 -17
-15 -16 -40 14 -28 33 -35 77 -17 111 14 26 25 24 49 -7z m671 -9 c0 -59 -70
-105 -83 -54 -11 43 22 88 66 89 13 0 17 -8 17 -35z m-1804 0 c7 -28 -20 -80
-36 -70 -14 9 -12 69 2 83 18 18 27 15 34 -13z m567 14 c14 -6 30 -22 36 -35
9 -22 8 -24 -13 -24 -28 0 -76 35 -76 56 0 17 20 18 53 3z m-958 -85 c-20 -37
-44 -51 -57 -32 -13 20 1 60 30 91 l27 28 9 -27 c6 -20 4 -36 -9 -60z m-227
30 c21 -24 29 -54 16 -66 -10 -11 -69 11 -86 33 -10 12 -18 33 -18 46 0 23 3
25 33 19 17 -3 42 -17 55 -32z m2303 -47 c6 -22 8 -54 5 -70 -6 -32 -42 -87
-56 -87 -17 0 -51 81 -52 119 0 39 13 72 41 104 15 18 16 18 33 -3 10 -12 23
-40 29 -63z m-281 53 c12 -7 12 -11 -3 -28 -24 -26 -68 -34 -108 -20 l-32 11
27 24 c28 24 88 31 116 13z m140 -24 c0 -25 -7 -40 -26 -55 -39 -31 -64 -28
-64 7 0 31 15 54 45 70 35 19 45 14 45 -22z m-1480 -25 c0 -15 -6 -35 -13 -45
-12 -16 -14 -16 -26 -2 -28 34 -5 110 25 85 8 -6 14 -24 14 -38z m970 36 c0
-35 -68 -87 -115 -87 -25 0 -17 39 14 71 22 21 39 29 65 29 23 0 36 -5 36 -13z
m-1183 -22 c24 -21 26 -26 13 -35 -8 -6 -37 -9 -64 -7 -37 3 -55 11 -69 28
-18 22 -18 23 0 30 40 16 91 9 120 -16z m411 -37 c7 -13 11 -36 10 -53 -4 -39
-32 -36 -70 6 -27 28 -38 85 -21 102 10 10 66 -28 81 -55z m272 15 c0 -28 -43
-79 -58 -69 -22 13 -13 65 14 93 21 21 28 23 35 12 5 -8 9 -24 9 -36z m98 5
c7 -7 12 -16 12 -20 0 -16 -48 -8 -71 12 l-24 19 36 1 c19 0 40 -5 47 -12z
m-968 -68 c0 -44 -34 -85 -50 -60 -18 28 -15 64 6 98 21 32 44 12 44 -38z
m1425 0 c4 -15 0 -33 -10 -45 -15 -20 -15 -20 -35 4 -22 26 -25 52 -9 83 11
20 11 20 29 2 10 -11 21 -30 25 -44z m785 20 c0 -61 -37 -100 -107 -113 -33
-6 -33 -6 -33 34 0 22 5 49 10 59 14 27 59 49 98 50 29 0 32 -3 32 -30z
m-2500 -12 c26 -42 26 -108 0 -158 -26 -51 -39 -58 -61 -31 -39 48 -34 137 12
195 11 14 22 26 25 26 2 0 13 -15 24 -32z m1973 3 c15 -15 -8 -38 -44 -46 -31
-7 -99 11 -99 25 0 5 12 16 28 25 29 16 97 14 115 -4z m-2116 -17 c21 -22 25
-32 20 -66 -9 -69 -42 -76 -76 -16 -12 21 -13 33 -3 67 15 48 24 50 59 15z
m1214 -5 c-5 -37 -19 -58 -54 -79 -47 -29 -61 -26 -53 12 7 37 21 55 61 80 37
22 51 18 46 -13z m-512 5 c18 -13 20 -18 10 -25 -33 -20 -119 6 -104 32 10 15
69 10 94 -7z m661 2 c0 -32 -21 -66 -49 -81 -41 -21 -44 -19 -37 17 7 36 22
57 51 68 29 12 35 12 35 -4z m927 -4 c20 -12 -17 -72 -58 -94 -39 -21 -129
-25 -129 -5 0 26 42 79 73 92 35 16 95 19 114 7z m463 -12 c0 -12 -11 -32 -25
-45 -33 -34 -65 -33 -65 2 0 36 27 63 62 63 22 0 28 -5 28 -20z m-2245 -33
c15 -36 11 -68 -13 -104 -19 -31 -28 -29 -48 8 -17 33 -13 68 12 107 20 31 33
28 49 -11z m1275 24 c0 -16 -48 -60 -73 -66 -13 -4 -39 -5 -58 -3 l-34 3 37
38 c31 32 42 37 82 37 25 0 46 -4 46 -9z m-322 -16 c12 -3 27 -15 32 -26 10
-17 7 -19 -28 -19 -25 0 -49 8 -67 22 -26 20 -26 22 -9 29 19 7 28 7 72 -6z
m-1187 -5 c10 -6 19 -18 19 -26 0 -25 -79 -14 -98 14 -14 21 -14 22 22 22 21
0 46 -5 57 -10z m513 -39 c17 -18 16 -19 -14 -26 -31 -7 -80 14 -80 35 0 19
76 11 94 -9z m1264 3 l37 -15 -24 -20 c-26 -21 -99 -26 -132 -8 -24 12 -16 27
25 45 40 17 49 17 94 -2z m-1450 -29 c17 -36 15 -55 -9 -94 -19 -31 -22 -33
-37 -17 -23 23 -22 89 2 115 25 27 30 26 44 -4z m792 0 c0 -3 -6 -21 -14 -40
-15 -35 -42 -55 -74 -55 -16 0 -19 5 -14 23 10 32 24 52 47 65 21 12 55 16 55
7z m970 -65 c0 -15 -9 -35 -21 -46 -17 -16 -22 -16 -29 -4 -15 24 -11 72 7 92
16 18 18 18 30 2 7 -10 13 -30 13 -44z m370 25 c0 -50 -42 -95 -97 -102 -42
-6 -43 -5 -43 25 0 69 40 111 108 112 30 0 32 -2 32 -35z m-2810 -10 c18 -18
25 -36 25 -64 0 -22 -3 -42 -6 -45 -3 -4 -23 0 -45 7 -48 17 -81 68 -70 111 6
26 10 28 39 22 18 -4 43 -18 57 -31z m405 3 c17 -16 18 -20 5 -28 -32 -20
-102 -6 -122 24 -13 19 -9 25 20 29 40 5 75 -3 97 -25z m1339 10 c18 -26 20
-61 5 -89 -12 -24 -27 -16 -44 24 -9 22 -10 39 -3 59 12 34 22 35 42 6z m-464
-76 c0 -16 -7 -37 -15 -48 -15 -19 -16 -18 -40 9 -27 30 -33 74 -14 110 12 20
12 20 40 -11 17 -19 29 -44 29 -60z m1020 67 c0 -28 -109 -55 -124 -30 -7 11
24 38 49 43 28 5 75 -3 75 -13z m340 3 c0 -60 -105 -112 -173 -86 -21 8 -3 58
30 84 35 28 143 29 143 2z m-1856 -37 c14 -29 15 -42 6 -70 -18 -55 -36 -62
-60 -23 -25 42 -25 64 0 106 23 38 31 36 54 -13z m145 36 c21 -14 3 -31 -32
-31 -37 1 -76 25 -55 33 21 9 72 7 87 -2z m1999 -17 c4 -27 -29 -55 -67 -56
-40 -1 -47 6 -33 37 21 45 94 59 100 19z m-878 -20 c48 -19 50 -29 9 -43 -45
-16 -94 -14 -137 5 l-37 16 40 19 c49 23 73 23 125 3z m304 -10 c12 -31 6 -71
-13 -88 -19 -17 -20 -17 -30 3 -16 29 -13 62 6 83 20 22 29 23 37 2z m-2233
-34 c12 -7 19 -21 19 -40 0 -34 -2 -35 -33 -19 -27 14 -37 28 -37 52 0 19 22
22 51 7z m343 0 c37 -14 32 -26 -18 -45 -37 -14 -50 -15 -80 -5 -41 13 -38 26
8 46 38 16 57 17 90 4z m461 -84 c0 -45 -18 -78 -39 -70 -19 7 -46 60 -46 91
0 16 7 39 16 52 l17 23 26 -26 c20 -20 26 -36 26 -70z m-641 68 c3 -9 6 -22 6
-29 0 -19 -50 -76 -61 -69 -16 10 -9 61 12 88 24 30 34 33 43 10z m1996 -1
c11 -11 -44 -43 -74 -43 -46 0 -61 13 -39 32 10 8 25 18 33 21 15 6 71 -1 80
-10z m-773 -9 c14 -36 -93 -98 -133 -76 -13 7 -12 12 7 36 37 47 114 72 126
40z m1381 -9 c3 -2 1 -16 -2 -30 -12 -48 -100 -80 -158 -57 -16 7 -16 9 -1 41
21 42 65 63 118 56 21 -3 41 -8 43 -10z m-886 -23 c5 -5 0 -16 -9 -24 -28 -25
-83 -35 -131 -25 -38 7 -42 10 -30 24 23 28 71 44 118 38 24 -3 48 -9 52 -13z
m498 8 c13 -9 12 -13 -9 -30 -26 -23 -47 -25 -88 -9 l-28 11 24 19 c25 20 77
25 101 9z m148 -31 c3 -38 -23 -71 -65 -84 -21 -6 -23 -3 -23 30 0 45 15 73
43 85 33 13 42 7 45 -31z m-2686 1 c14 -11 28 -28 31 -39 4 -17 -1 -21 -37
-26 -64 -10 -136 26 -136 67 0 27 107 26 142 -2z m1280 -50 c18 -36 15 -80 -6
-80 -41 0 -92 79 -80 125 l6 26 32 -19 c17 -9 39 -33 48 -52z m-679 43 c32
-18 -49 -58 -99 -48 -32 6 -52 21 -41 32 24 24 108 34 140 16z m450 -57 c0
-14 -6 -33 -14 -42 -12 -14 -14 -14 -26 2 -16 22 -17 49 -2 76 10 18 13 19 26
5 9 -8 16 -27 16 -41z m1223 42 c11 -17 -43 -58 -76 -58 -34 0 -42 10 -27 31
26 35 88 51 103 27z m774 -76 c0 -24 -8 -42 -29 -63 -35 -35 -47 -36 -62 -7
-30 56 -7 127 46 148 16 6 23 2 32 -19 7 -14 12 -41 13 -59z m-2686 62 c13
-33 5 -65 -25 -99 -17 -19 -35 -32 -40 -29 -19 11 -9 77 17 111 28 37 39 41
48 17z m-172 -35 c24 -28 15 -39 -30 -39 -58 0 -108 47 -69 64 24 11 82 -4 99
-25z m2318 21 c13 -9 12 -12 -4 -25 -24 -18 -73 -19 -105 -1 -23 13 -23 14 -5
24 24 14 94 15 114 2z m-601 -25 c8 -9 -24 -38 -56 -52 -57 -23 -136 -12 -118
17 16 25 89 51 130 45 21 -3 41 -8 44 -10z m989 -22 c4 -38 -33 -83 -68 -83
-17 0 -20 6 -20 39 0 31 6 44 27 61 36 28 57 22 61 -17z m-2180 18 c11 -6 7
-13 -15 -29 -37 -26 -76 -36 -108 -28 -30 8 -25 20 19 47 32 20 82 25 104 10z
m2066 -47 c7 -25 -8 -64 -23 -64 -5 0 -16 15 -25 34 -13 28 -14 39 -4 60 10
24 13 25 29 10 9 -8 20 -26 23 -40z m-744 31 c47 -24 67 -75 29 -75 -24 0 -79
51 -79 74 0 20 13 20 50 1z m-2016 -26 c14 -11 26 -29 26 -40 0 -44 -100 -8
-113 41 -4 17 0 20 28 20 18 0 44 -9 59 -21z m1466 16 c0 -22 -32 -76 -51 -86
-35 -18 -89 -29 -89 -17 0 27 35 78 63 92 31 15 77 22 77 11z m949 -16 c39
-14 35 -31 -10 -42 -35 -9 -89 4 -89 22 0 5 12 14 28 19 36 14 34 14 71 1z
m229 -42 c3 -41 -1 -51 -26 -77 -28 -27 -77 -48 -88 -37 -11 10 -8 87 5 109
16 30 60 59 86 55 16 -2 21 -11 23 -50z m-2248 3 c0 -39 -18 -77 -46 -95 -22
-14 -24 -14 -30 10 -9 35 3 73 31 101 30 30 45 24 45 -16z m-524 15 c16 -13
17 -16 4 -25 -32 -21 -100 -7 -100 21 0 20 71 23 96 4z m939 -5 c23 -9 25 -13
14 -26 -27 -32 -91 -56 -136 -51 -24 2 -47 7 -50 11 -17 17 77 75 124 76 12 0
34 -5 48 -10z m-616 -36 c12 -15 21 -31 21 -35 0 -5 -23 -9 -50 -9 -41 0 -56
5 -75 25 -37 36 -31 45 29 45 47 0 57 -4 75 -26z m1686 -61 c-7 -41 -45 -87
-86 -103 -40 -17 -52 -1 -44 55 8 55 29 83 78 105 l42 19 8 -22 c5 -12 6 -36
2 -54z m-1347 47 c31 -14 47 -29 57 -54 20 -47 20 -46 -17 -46 -45 0 -96 34
-114 75 -8 19 -14 37 -14 40 0 11 47 3 88 -15z m1480 1 c36 -18 62 -55 62 -87
0 -12 -5 -12 -37 1 -44 18 -83 58 -83 86 0 24 11 24 58 0z m477 -18 c6 -27
-17 -72 -42 -80 -20 -7 -26 55 -9 82 21 33 42 32 51 -2z m368 -4 c11 -41 -26
-91 -54 -73 -18 11 -9 63 13 78 29 21 35 20 41 -5z m-2799 -20 c11 -10 17 -21
14 -25 -15 -14 -78 -7 -98 11 -26 23 -25 33 3 38 31 6 59 -2 81 -24z m2340 9
c11 -42 6 -72 -16 -95 -37 -39 -58 -26 -58 38 0 20 9 39 26 54 33 31 40 31 48
3z m-2545 -14 c22 -18 31 -35 31 -55 0 -32 -7 -34 -63 -18 -37 10 -77 55 -77
87 0 24 76 14 109 -14z m1110 17 c12 -8 12 -12 2 -24 -31 -38 -124 -58 -174
-38 -17 6 -16 8 5 27 13 12 32 26 43 32 24 14 104 15 124 3z m2079 -7 c-5 -27
-53 -57 -77 -49 -27 8 -27 30 1 49 31 22 81 21 76 0z m-2624 -20 c11 -27 7
-59 -11 -83 -15 -23 -17 -23 -30 -6 -17 25 -17 55 3 83 18 26 30 28 38 6z
m305 -20 c23 -29 27 -65 10 -96 -11 -20 -11 -20 -35 3 -24 22 -32 67 -18 103
9 23 19 20 43 -10z m1566 -4 c11 -51 -42 -109 -59 -64 -11 29 -6 54 14 74 27
27 37 25 45 -10z m-2070 -15 c38 -37 33 -55 -15 -55 -63 0 -110 31 -110 71 0
5 23 9 50 9 41 0 56 -5 75 -25z m845 1 c0 -13 -12 -35 -26 -50 -24 -23 -34
-27 -61 -26 -18 1 0 47 28 73 36 34 59 35 59 3z m1698 -17 c4 -32 -46 -79 -60
-57 -13 21 -9 50 9 70 23 25 47 19 51 -13z m-1070 -12 c20 -19 30 -66 16 -80
-10 -10 -50 21 -63 49 -13 30 -6 68 12 58 7 -4 22 -16 35 -27z m372 -26 c14
-28 13 -41 -5 -41 -23 0 -65 46 -65 70 0 20 1 20 30 5 16 -8 34 -24 40 -34z
m-700 -8 c0 -26 -54 -92 -66 -80 -4 4 -8 24 -8 44 0 27 7 42 28 60 31 27 46
19 46 -24z m1230 37 c12 -7 11 -10 -5 -16 -11 -4 -22 -8 -25 -9 -3 -2 -16 2
-30 7 -20 7 -22 11 -10 18 19 12 51 12 70 0z m387 4 c28 -8 20 -29 -16 -44
-19 -8 -35 -8 -54 -1 -62 24 0 64 70 45z m-2988 -19 c52 -26 81 -71 81 -123 0
-69 -9 -78 -54 -57 -61 29 -93 93 -80 161 7 38 13 40 53 19z m612 -14 l24 -19
-30 -12 c-16 -6 -38 -9 -50 -6 -31 8 -59 32 -51 44 12 19 81 14 107 -7z m259
-51 c0 -10 -5 -31 -10 -46 l-11 -27 -24 23 c-28 26 -35 86 -12 109 10 10 16 7
35 -14 12 -14 22 -35 22 -45z m-1043 24 c38 -19 58 -44 69 -88 l7 -29 -66 5
c-53 3 -72 9 -93 28 -22 21 -54 76 -54 95 0 12 105 4 137 -11z m2728 0 c29
-19 24 -34 -11 -34 -29 0 -84 26 -84 40 0 16 69 11 95 -6z m-665 -4 c0 -23
-50 -60 -80 -60 -38 0 -40 21 -4 49 28 22 84 29 84 11z m-1630 -15 c38 -20 38
-30 -1 -44 -48 -17 -75 -13 -106 13 l-28 24 35 10 c50 15 67 14 100 -3z m1387
-17 c27 -29 35 -60 27 -92 -8 -32 -24 -33 -51 -3 -26 28 -37 62 -29 93 8 30
26 31 53 2z m1297 9 c17 -13 16 -14 -12 -26 -49 -20 -128 6 -91 30 21 13 83
11 103 -4z m-1975 -23 c25 -31 27 -82 6 -110 -15 -19 -16 -18 -40 9 -27 30
-33 74 -15 108 14 26 25 24 49 -7z m1487 10 c19 -9 34 -23 34 -31 0 -22 -84
-12 -111 13 -37 33 18 46 77 18z m-1787 -19 c33 -17 47 -45 29 -57 -24 -16
-90 -1 -117 27 -22 22 -24 27 -11 35 22 14 67 12 99 -5z m1706 -21 c24 -15 25
-18 10 -27 -38 -21 -146 22 -113 45 18 12 71 3 103 -18z m492 -20 c33 -21 18
-37 -29 -31 -46 6 -86 36 -66 49 17 11 65 2 95 -18z m-1753 -6 c20 -28 20 -87
1 -113 -15 -19 -16 -19 -37 3 -26 26 -31 90 -9 116 18 21 27 20 45 -6z m756 8
c0 -22 -49 -56 -81 -56 -35 0 -37 13 -4 45 27 28 85 35 85 11z m-1530 -11 c17
-9 30 -18 30 -20 0 -2 -13 -11 -30 -20 -40 -21 -89 -19 -125 5 l-29 19 34 15
c45 20 84 20 120 1z m2449 -51 c17 -14 29 -29 26 -34 -9 -14 -78 8 -104 34
l-26 26 37 0 c25 0 46 -8 67 -26z m-2629 -4 c21 -21 25 -46 12 -68 -14 -22
-62 24 -62 59 0 35 21 38 50 9z m1475 -40 c17 -34 20 -76 5 -85 -6 -4 -26 5
-45 19 -35 27 -54 79 -41 111 5 14 9 14 36 0 16 -8 36 -29 45 -45z m-815 24
c37 -32 27 -44 -38 -44 -47 0 -96 21 -105 44 -7 17 10 23 70 25 31 1 49 -5 73
-25z m2349 17 c15 -10 7 -46 -17 -73 -19 -22 -71 -32 -118 -23 -34 6 -36 8
-30 38 9 47 39 67 100 67 28 0 57 -4 65 -9z m-3256 -15 c18 -7 42 -25 55 -39
l24 -25 -34 -10 c-93 -29 -153 -22 -208 25 -29 24 -30 27 -14 36 48 27 130 33
177 13z m3040 -3 c-11 -33 -36 -53 -65 -53 -26 0 -29 3 -23 23 9 30 33 47 67
47 22 0 26 -4 21 -17z m-2685 -38 c6 -13 8 -32 5 -44 -5 -19 -7 -19 -33 -6
-28 15 -44 52 -34 79 8 20 48 2 62 -29z m1612 36 c0 -39 -92 -92 -127 -73 -15
9 -13 14 19 46 28 28 44 36 72 36 20 0 36 -4 36 -9z m-1418 -40 c18 -16 30
-33 26 -37 -4 -4 -29 -9 -56 -12 -54 -5 -104 15 -122 47 -13 24 -2 29 67 30
45 1 58 -3 85 -28z m477 -39 c18 -10 33 -22 33 -27 -1 -17 -79 -34 -113 -25
-33 10 -59 27 -59 40 0 11 48 28 80 29 14 1 40 -7 59 -17z m1681 -24 c50 -34
52 -53 4 -45 -39 7 -85 34 -92 55 -7 21 53 13 88 -10z m-720 -1 c0 -26 -48
-59 -93 -64 -60 -7 -70 11 -28 49 24 22 41 28 76 28 31 0 45 -4 45 -13z
m-1836 -3 c23 -9 20 -19 -9 -32 -33 -15 -60 -15 -87 -1 -21 11 -21 12 -3 25
20 15 72 19 99 8z m2887 -4 c28 -16 23 -28 -15 -35 -36 -7 -101 18 -91 35 8
13 81 13 106 0z m-2387 -10 c35 -13 33 -28 -6 -38 -33 -9 -88 3 -88 18 0 5 12
13 28 18 36 14 36 14 66 2z m2217 -11 c36 -26 37 -39 2 -39 -31 0 -93 34 -93
50 0 18 61 11 91 -11z m-2913 2 c10 -6 5 -13 -20 -28 -47 -29 -75 -36 -114
-28 -44 8 -43 20 4 44 38 21 107 27 130 12z m1738 -16 c34 -26 50 -70 39 -105
-6 -19 -8 -19 -35 -5 -35 18 -60 62 -60 105 0 37 13 38 56 5z m-1326 5 c8 -5
11 -10 5 -10 -5 0 -17 5 -25 10 -8 5 -10 10 -5 10 6 0 17 -5 25 -10z m-86 -6
c27 -10 18 -24 -26 -44 -49 -22 -66 -24 -103 -10 -24 9 -25 13 -14 26 7 9 22
20 34 24 24 10 87 12 109 4z m875 -8 l25 -14 -32 -16 c-38 -20 -102 -21 -127
-2 -18 13 -17 14 11 29 36 20 91 21 123 3z m1995 -22 c9 -34 -1 -61 -25 -74
-24 -14 -35 -7 -43 26 -8 32 16 74 43 74 12 0 21 -10 25 -26z m-674 -2 c0 -42
-65 -92 -120 -92 -33 0 -27 53 11 84 38 32 109 37 109 8z m820 -17 c0 -36 -33
-65 -75 -65 -31 0 -35 3 -35 27 0 39 27 63 72 63 34 0 38 -3 38 -25z m-3250
-10 c17 -9 30 -20 30 -26 0 -17 -102 -59 -143 -59 -38 0 -107 25 -107 39 0 4
23 19 52 34 59 31 123 35 168 12z m335 3 c35 -16 31 -25 -14 -38 -29 -7 -46
-7 -65 1 -33 15 -33 25 2 37 37 14 47 14 77 0z m2258 -22 c-3 -37 -27 -64 -72
-76 -44 -12 -55 -2 -46 40 8 37 57 72 95 68 21 -3 25 -8 23 -32z m405 6 c4
-26 -39 -72 -68 -72 -15 0 -20 6 -20 28 0 35 10 49 40 61 33 13 44 9 48 -17z
m-268 -18 c0 -38 -16 -61 -51 -73 -38 -13 -49 -8 -49 23 0 31 35 74 63 78 31
5 37 1 37 -28z m140 -8 c0 -40 -37 -76 -77 -76 -30 0 -39 22 -23 59 12 31 41
49 78 50 19 1 22 -4 22 -33z m-2791 -35 c21 -14 -46 -52 -84 -49 -39 4 -38 16
5 39 38 21 58 23 79 10z m503 -28 c7 -33 -11 -78 -43 -105 -40 -34 -53 -27
-46 24 8 63 79 126 89 81z m-393 -2 c10 -6 5 -14 -20 -34 -40 -30 -79 -41
-109 -32 -21 7 -21 7 -3 27 34 38 101 58 132 39z m3002 -10 l24 -19 -26 -7
c-30 -7 -94 20 -84 35 10 17 62 11 86 -9z m-2513 -37 c2 -30 -2 -45 -17 -58
-11 -10 -25 -15 -30 -11 -17 10 -13 76 6 97 24 27 38 17 41 -28z m-368 29 c0
-22 -42 -72 -73 -86 -35 -17 -67 -22 -67 -12 0 20 36 69 63 85 32 20 77 27 77
13z m140 -8 c0 -51 -64 -125 -107 -125 -18 0 -16 45 2 80 24 47 105 81 105 45z
m320 -39 c0 -40 -26 -68 -41 -45 -13 21 -11 42 7 67 20 29 34 20 34 -22z
m2335 8 c36 -24 31 -34 -19 -34 -29 0 -52 7 -71 22 -26 20 -26 22 -9 30 25 10
68 2 99 -18z m-522 9 c-7 -2 -19 -2 -25 0 -7 3 -2 5 12 5 14 0 19 -2 13 -5z
m44 1 c-3 -3 -12 -4 -19 -1 -8 3 -5 6 6 6 11 1 17 -2 13 -5z m-437 -79 c-6
-18 -21 -42 -35 -55 l-24 -23 -7 27 c-9 37 3 73 33 104 l26 26 9 -24 c5 -14 4
-36 -2 -55z m220 48 c30 -17 50 -51 50 -83 0 -24 -20 -25 -60 -5 -31 16 -43
33 -54 78 -5 23 -3 27 15 27 11 0 34 -7 49 -17z m549 3 c15 -8 33 -27 39 -42
l13 -27 -37 6 c-41 7 -69 28 -77 58 -6 23 21 26 62 5z m-399 -11 c31 -16 43
-33 54 -77 5 -23 3 -28 -13 -28 -50 0 -101 50 -101 99 0 25 20 27 60 6z
m-1575 -15 c17 -19 24 -64 11 -77 -17 -17 -60 48 -51 77 8 25 17 25 40 0z
m1876 -9 c47 -48 36 -63 -30 -40 -18 6 -38 24 -47 40 -14 29 -14 29 17 29 20
0 40 -9 60 -29z m-785 -27 c4 -24 1 -48 -12 -76 -16 -36 -19 -38 -31 -22 -18
24 -16 95 3 122 19 28 31 21 40 -24z m628 24 c14 -13 28 -36 32 -52 6 -26 5
-28 -17 -21 -36 11 -69 45 -69 72 0 29 21 30 54 1z m-1801 -36 c9 -8 17 -28
17 -44 0 -28 0 -28 -32 -15 -35 14 -63 58 -54 83 5 12 10 13 28 3 13 -6 31
-18 41 -27z m-119 -34 c14 -13 27 -34 28 -48 3 -21 -1 -25 -22 -22 -49 5 -97
92 -51 92 11 0 31 -10 45 -22z m-134 -3 c33 -17 50 -43 50 -74 0 -25 -20 -27
-60 -6 -33 17 -50 43 -50 74 0 25 20 27 60 6z m-263 -28 c12 -12 25 -35 29
-51 7 -29 7 -29 -32 -23 -46 7 -84 46 -84 84 0 23 3 25 33 19 17 -4 42 -17 54
-29z m1966 24 c18 -6 18 -7 0 -23 -32 -28 -113 -30 -115 -3 -2 25 74 43 115
26z m-1834 -16 c30 -15 58 -72 42 -88 -12 -12 -77 17 -90 41 -16 30 -14 62 4
62 9 0 29 -7 44 -15z m-260 -52 c19 -13 21 -17 10 -28 -41 -37 -128 -44 -179
-14 l-34 21 29 16 c63 33 126 34 174 5z m2171 8 c0 -25 -38 -53 -80 -58 l-45
-6 16 24 c9 13 27 30 40 36 28 15 69 17 69 4z m90 -31 c-10 -18 -64 -50 -85
-50 -14 0 -2 39 18 57 42 39 89 34 67 -7z m110 18 c0 -28 -8 -39 -40 -61 -34
-24 -40 -22 -40 13 0 23 7 35 33 50 41 25 47 25 47 -2z m130 7 c0 -25 -46 -65
-75 -65 -33 0 -32 15 4 51 32 31 71 39 71 14z m150 -6 c0 -34 -33 -58 -102
-73 -23 -5 -28 -3 -28 12 0 22 18 45 45 60 26 15 85 15 85 1z m-2561 -85 c13
-13 -43 -44 -78 -44 -47 0 -67 12 -48 28 34 28 105 37 126 16z m671 -78 c0
-19 -9 -45 -22 -61 l-22 -28 -23 27 c-29 35 -30 84 -1 121 l22 28 23 -27 c14
-17 23 -40 23 -60z m1814 33 c33 -26 25 -39 -23 -39 -45 0 -102 37 -79 51 24
15 75 9 102 -12z m-2218 -3 c18 -14 18 -15 -9 -25 -37 -14 -56 -13 -86 3 -23
13 -23 14 -5 24 27 16 77 15 100 -2z m2053 -7 c29 -10 70 -64 57 -76 -2 -3
-18 -2 -35 2 -31 7 -71 47 -71 71 0 17 8 17 49 3z m-509 -37 c0 -33 -8 -45
-37 -61 -29 -15 -30 -14 -36 9 -8 32 3 60 32 74 32 17 41 12 41 -22z m283 27
c14 -6 30 -22 36 -36 15 -32 14 -33 -10 -33 -38 0 -88 38 -89 68 0 15 31 16
63 1z m-2028 -13 c19 -8 35 -17 35 -20 0 -15 -90 -49 -126 -48 -44 0 -84 16
-84 33 0 14 79 49 113 49 15 0 43 -7 62 -14z m455 -12 c14 -35 4 -67 -31 -100
-35 -33 -44 -27 -44 31 0 32 6 50 24 69 31 33 39 33 51 0z m1691 16 c10 -6 26
-24 34 -40 15 -30 15 -30 -13 -30 -36 0 -82 34 -82 61 0 21 29 26 61 9z m-323
-42 c21 -27 24 -59 7 -84 -14 -21 -19 -23 -32 -13 -27 23 -35 59 -18 85 17 27
28 30 43 12z m-1488 -13 c0 -31 -29 -72 -62 -88 -29 -14 -33 -15 -36 -1 -2 9
2 29 8 45 19 44 90 79 90 44z m-245 -24 c9 -16 -37 -41 -77 -41 -21 0 -38 4
-38 10 0 26 101 53 115 31z m121 -7 c-3 -9 -6 -20 -6 -25 0 -9 -59 -49 -72
-49 -20 0 -5 41 23 64 35 29 65 35 55 10z"/>
<path d="M636 1914 c-20 -20 -20 -38 0 -59 21 -20 43 -16 61 12 13 19 12 24
-6 42 -25 25 -35 26 -55 5z"/>
<path d="M1260 1741 l0 -191 35 0 35 0 0 93 c0 98 7 117 45 117 38 0 45 -19
45 -117 l0 -93 35 0 35 0 0 95 c0 100 -13 147 -45 159 -25 9 -78 7 -95 -4 -13
-8 -16 1 -20 58 l-5 67 -32 3 -33 3 0 -190z"/>
<path d="M2937 1923 c-4 -3 -7 -32 -7 -63 l0 -58 -44 5 c-52 6 -80 -7 -106
-50 -37 -59 -20 -170 29 -197 28 -15 78 -12 105 5 21 14 24 14 29 0 4 -8 18
-15 32 -15 l25 0 0 190 0 190 -28 0 c-16 0 -32 -3 -35 -7z m-12 -238 c0 -67
-1 -70 -29 -80 -24 -8 -31 -6 -47 14 -23 29 -25 88 -3 119 12 17 24 22 47 20
l32 -3 0 -70z"/>
<path d="M310 1736 l0 -186 35 0 35 0 0 70 c0 67 1 70 24 70 19 0 33 -15 66
-70 42 -69 43 -70 86 -70 l43 0 -40 64 c-22 36 -47 70 -55 77 -12 10 -10 15
15 30 40 24 59 85 40 124 -26 52 -58 67 -158 73 l-91 5 0 -187z m158 108 c26
-18 30 -65 7 -84 -9 -7 -32 -13 -53 -14 l-37 -1 -3 58 -3 57 33 0 c19 0 44 -7
56 -16z"/>
<path d="M1934 1898 c3 -13 34 -95 70 -183 l64 -160 34 -3 c29 -3 36 1 47 25
26 57 131 324 131 333 0 12 -50 13 -67 2 -7 -4 -34 -66 -60 -138 l-48 -131
-49 131 c-27 72 -54 134 -60 138 -6 4 -24 8 -40 8 -24 0 -27 -3 -22 -22z"/>
<path d="M3460 1736 l0 -186 93 0 c143 1 201 37 227 142 14 56 1 113 -36 158
-42 49 -79 63 -186 68 l-98 5 0 -187z m204 101 c55 -36 58 -146 6 -199 -24
-24 -36 -28 -84 -28 l-56 0 0 118 c0 65 3 122 8 126 12 13 99 0 126 -17z"/>
<path d="M630 1680 l0 -130 35 0 35 0 0 130 0 130 -35 0 -35 0 0 -130z"/>
<path d="M777 1794 c-23 -13 -26 -18 -16 -35 8 -15 16 -19 32 -14 51 16 68 17
82 5 21 -17 19 -50 -2 -50 -35 0 -95 -22 -114 -41 -24 -24 -25 -71 -1 -92 23
-21 90 -22 119 -2 19 13 22 13 27 0 3 -8 17 -15 31 -15 l25 0 0 99 c0 92 -2
102 -26 130 -23 27 -32 31 -77 31 -29 -1 -64 -8 -80 -16z m113 -159 c0 -18 -7
-28 -27 -36 -35 -13 -55 -4 -51 23 2 14 13 25 28 29 43 12 50 10 50 -16z"/>
<path d="M1045 1777 c-43 -43 -53 -93 -30 -153 11 -29 27 -50 45 -59 42 -22
113 -19 141 4 22 18 23 21 8 36 -13 13 -20 14 -42 4 -63 -29 -112 31 -87 106
13 41 47 54 88 36 22 -11 28 -10 40 6 20 28 -17 53 -80 53 -43 0 -54 -4 -83
-33z"/>
<path d="M1581 1784 c-92 -77 -43 -234 74 -234 24 0 55 4 69 10 57 21 85 125
51 190 -23 44 -53 60 -111 60 -42 0 -59 -5 -83 -26z m121 -41 c24 -21 25 -99
1 -125 -9 -10 -29 -18 -45 -18 -24 0 -32 6 -44 36 -34 82 30 160 88 107z"/>
<path d="M2348 1787 c-35 -30 -48 -58 -48 -107 0 -89 54 -135 147 -128 59 5
88 24 77 52 -5 12 -13 16 -28 11 -60 -17 -87 -17 -106 0 -11 10 -20 26 -20 36
0 16 11 19 83 21 l82 3 -1 39 c-1 31 -9 46 -33 68 -41 37 -112 39 -153 5z
m123 -54 c8 -22 6 -23 -46 -23 -59 0 -61 1 -44 31 15 29 79 23 90 -8z"/>
<path d="M2580 1680 l0 -130 35 0 35 0 0 83 c0 93 13 117 63 117 23 0 27 4 27
30 0 26 -3 30 -29 30 -16 0 -34 -7 -41 -15 -7 -8 -16 -15 -21 -15 -5 0 -9 7
-9 15 0 10 -10 15 -30 15 l-30 0 0 -130z"/>
<path d="M3083 1775 c-34 -34 -35 -37 -31 -101 4 -60 7 -70 36 -95 27 -24 41
-29 83 -29 48 0 109 22 109 39 0 5 -7 14 -15 21 -12 10 -21 10 -41 1 -51 -23
-104 -2 -104 42 0 15 12 17 79 17 44 0 83 4 86 10 11 18 -15 89 -42 109 -18
15 -40 21 -75 21 -44 0 -54 -4 -85 -35z m125 -27 c26 -26 13 -38 -38 -38 -34
0 -50 4 -50 13 0 21 22 37 50 37 14 0 31 -5 38 -12z"/>
<path d="M3879 1795 c-76 -41 -76 -183 0 -228 63 -37 186 -10 168 38 -5 13
-13 15 -30 10 -56 -18 -85 -17 -106 4 -41 41 -29 51 64 51 l85 0 0 30 c0 68
-45 110 -117 110 -21 -1 -50 -7 -64 -15z m111 -54 c15 -30 14 -31 -45 -31 -59
0 -60 1 -45 31 7 13 21 19 45 19 24 0 38 -6 45 -19z"/>
<path d="M4149 1795 c-52 -28 -73 -112 -45 -179 19 -45 52 -66 104 -66 43 0
102 23 102 39 0 20 -29 32 -49 22 -29 -16 -67 -13 -82 6 -8 9 -14 37 -14 63 0
26 6 54 14 63 15 19 53 22 80 7 14 -7 23 -5 35 9 16 18 16 20 -6 35 -28 20
-104 20 -139 1z"/>
<path d="M4381 1784 c-92 -77 -43 -234 74 -234 24 0 55 4 69 10 57 21 85 125
51 190 -23 44 -53 60 -111 60 -42 0 -59 -5 -83 -26z m121 -41 c24 -21 25 -99
1 -125 -9 -10 -29 -18 -45 -18 -24 0 -32 6 -44 36 -34 82 30 160 88 107z"/>
<path d="M4646 1617 c-36 -26 4 -84 42 -61 24 16 27 45 6 61 -10 7 -21 13 -24
13 -3 0 -14 -6 -24 -13z"/>
<path d="M467 1343 c319 -555 854 -960 1468 -1112 209 -52 327 -65 565 -65
238 0 358 13 565 65 481 120 911 390 1231 772 72 85 181 241 237 339 l28 48
-783 -1 c-701 -1 -777 -3 -728 -16 30 -7 127 -17 215 -21 l160 -7 -200 -5
-200 -5 28 -19 c72 -49 155 -69 327 -78 91 -5 206 -9 255 -8 50 0 113 -4 140
-9 l50 -10 -70 1 c-38 0 -95 0 -125 -1 l-55 -2 65 -25 c36 -14 88 -32 115 -40
70 -20 77 -25 25 -18 -24 4 -83 19 -130 34 -47 15 -105 28 -128 28 -24 1 -47
4 -51 6 -4 3 -13 1 -20 -4 -11 -6 -9 -10 7 -19 11 -6 29 -26 41 -46 l20 -35
117 0 117 0 39 -41 c21 -22 58 -51 81 -65 47 -27 36 -32 -20 -9 -20 9 -53 34
-74 56 l-38 41 -104 -7 c-117 -8 -150 1 -182 52 -30 48 -56 63 -113 63 -29 0
-69 7 -89 15 -46 20 -113 20 -113 1 0 -38 116 -97 215 -111 86 -11 150 -33
175 -60 16 -17 35 -25 59 -26 29 -1 31 -2 13 -7 -21 -7 -19 -10 26 -49 45 -38
50 -47 59 -102 5 -33 6 -58 3 -56 -9 5 -26 50 -34 87 -4 15 -26 43 -53 65
l-46 38 -134 5 c-86 3 -132 1 -130 -5 2 -5 40 -23 85 -40 124 -46 152 -82 95
-123 -24 -18 -26 -22 -13 -37 12 -14 6 -13 -30 5 -28 15 -70 25 -113 28 l-67
5 0 -29 c0 -16 -7 -51 -15 -77 -10 -34 -11 -55 -5 -73 16 -40 12 -78 -10 -102
-23 -25 -39 -30 -20 -7 8 10 10 35 5 83 -4 43 -2 85 5 112 15 55 9 77 -35 121
-52 54 -76 55 -115 5 -22 -29 -30 -49 -27 -68 3 -23 1 -25 -15 -17 -31 17 -33
55 -4 90 29 34 26 49 -8 49 -13 0 -30 8 -39 18 -14 16 -15 23 -3 62 22 77 1
116 -66 121 -46 4 -48 3 -48 -23 0 -19 -10 -35 -35 -54 -40 -30 -42 -39 -19
-87 16 -32 15 -37 -5 -92 -20 -53 -20 -60 -6 -81 10 -15 38 -30 82 -44 86 -27
111 -43 129 -87 12 -27 13 -42 4 -69 -16 -47 -29 -52 -17 -6 19 72 -10 102
-129 132 -23 5 -58 24 -79 40 -21 17 -44 30 -51 30 -7 0 -29 -28 -50 -62 -21
-35 -51 -78 -67 -97 -23 -27 -28 -40 -23 -63 3 -18 2 -27 -4 -23 -21 13 -10
74 18 107 16 18 36 54 46 80 10 27 33 61 54 79 46 40 61 66 61 104 0 46 -41
86 -105 101 -54 12 -67 7 -39 -16 9 -7 15 -29 15 -52 0 -34 -4 -41 -37 -60
-36 -22 -36 -22 -15 -36 23 -15 30 -66 11 -78 -6 -3 -10 1 -9 12 4 35 0 43
-28 58 -23 12 -32 12 -58 1 -17 -7 -39 -23 -47 -36 -9 -12 -20 -19 -24 -15
-12 12 21 60 51 75 l28 13 -33 34 c-46 47 -67 50 -131 20 -30 -14 -62 -26 -71
-26 -13 0 -15 -5 -7 -24 7 -20 3 -33 -20 -68 -36 -53 -37 -63 -5 -122 30 -56
32 -106 7 -129 -18 -16 -18 -15 -14 13 3 20 -5 53 -23 93 l-28 62 21 60 c12
33 22 71 22 83 0 22 -3 23 -42 17 -83 -14 -117 -46 -103 -97 6 -21 5 -22 -8
-6 -13 17 -18 16 -73 -14 -100 -53 -120 -81 -104 -140 l9 -33 -19 24 c-11 13
-20 38 -20 56 0 36 24 61 114 119 27 17 51 36 53 41 2 6 -39 10 -109 10 l-111
0 -10 -29 c-7 -20 -6 -35 2 -48 15 -24 0 -23 -27 2 -25 23 -27 33 -11 62 10
18 8 19 -11 13 -15 -5 -20 -4 -16 4 4 6 14 11 22 11 18 0 18 6 -3 57 -31 73
-89 67 -125 -13 -11 -27 -32 -53 -51 -65 -47 -28 -53 -23 -14 13 28 27 77 104
77 121 0 6 -92 -10 -123 -22 -40 -16 -57 -13 -27 4 39 23 97 36 191 45 55 5
102 16 130 30 43 22 131 108 123 121 -8 13 -87 -12 -168 -52 -44 -23 -105 -50
-135 -60 -30 -10 -61 -25 -69 -31 -13 -11 -14 -11 -8 1 5 7 41 29 80 48 39 18
91 46 116 60 l44 27 -29 8 c-16 4 -87 6 -159 3 l-129 -4 -119 -57 c-111 -54
-120 -61 -138 -101 -23 -53 -41 -57 -30 -7 10 45 30 67 83 89 23 10 67 33 97
51 55 33 82 40 280 70 58 9 127 24 154 34 47 18 86 46 86 60 0 18 -60 17 -115
-3 -51 -18 -83 -21 -222 -22 -89 0 -154 3 -145 7 9 4 73 7 142 8 128 0 150 4
255 39 33 11 82 25 108 31 27 5 74 21 105 35 l57 24 -818 1 -818 0 28 -47z
m2996 -10 c-7 -2 -19 -2 -25 0 -7 3 -2 5 12 5 14 0 19 -2 13 -5z m54 -9 c-3
-3 -12 -4 -19 -1 -8 3 -5 6 6 6 11 1 17 -2 13 -5z m406 -111 c-13 -2 -33 -2
-45 0 -13 2 -3 4 22 4 25 0 35 -2 23 -4z m-253 -233 c18 -12 2 -12 -25 0 -13
6 -15 9 -5 9 8 0 22 -4 30 -9z"/>
<path d="M2062 1341 c-82 -24 -87 -31 -20 -31 66 0 144 14 189 34 l34 14 -70
0 c-38 1 -98 -8 -133 -17z"/>
<path d="M2925 1290 c28 -16 66 -32 85 -36 19 -3 43 -8 54 -11 13 -4 16 -1 11
7 -13 21 -129 70 -165 70 l-35 0 50 -30z"/>
<path d="M2250 1299 c-19 -5 -95 -8 -169 -7 l-134 3 -17 -30 c-21 -38 -69 -66
-150 -86 l-65 -16 47 -8 c29 -4 67 -2 98 5 28 7 76 10 106 8 39 -3 58 -1 66 9
15 18 72 47 123 62 85 26 155 54 155 62 0 11 -13 10 -60 -2z"/>
<path d="M2773 1294 c-10 -27 31 -67 119 -115 59 -31 102 -48 136 -51 28 -3
62 -14 79 -26 17 -12 50 -24 74 -28 53 -8 77 -20 100 -48 15 -19 30 -21 126
-24 101 -3 107 -2 92 13 -10 10 -72 29 -150 47 -151 33 -212 63 -236 112 -15
32 -19 34 -110 49 -74 12 -107 23 -153 51 -66 41 -68 42 -77 20z"/>
<path d="M2425 1251 c-16 -10 -47 -36 -68 -58 l-37 -39 34 -16 c32 -16 37 -15
94 5 33 12 70 31 81 41 23 21 27 56 9 74 -18 18 -79 14 -113 -7z"/>
<path d="M2200 1210 c-40 -7 -105 -39 -96 -47 11 -12 137 9 143 24 9 22 -8 30
-47 23z"/>
<path d="M3408 1213 c7 -3 16 -2 19 1 4 3 -2 6 -13 5 -11 0 -14 -3 -6 -6z"/>
<path d="M2638 1203 c-22 -6 -33 -40 -18 -58 8 -10 8 -29 1 -67 -5 -29 -8 -54
-7 -56 2 -1 28 -8 59 -14 54 -11 56 -11 90 18 55 45 55 56 -5 124 -52 60 -68
67 -120 53z"/>
<path d="M2215 1129 c-22 -4 -60 -8 -84 -8 l-43 -1 17 -26 c29 -45 11 -54
-143 -70 -59 -6 -63 -8 -77 -39 -12 -31 -63 -69 -82 -63 -12 4 -14 -15 -4 -43
8 -24 16 -27 74 -33 98 -11 134 -1 163 45 18 29 34 41 66 49 24 7 55 25 70 41
23 25 34 29 81 29 51 0 54 1 50 23 -3 14 3 29 16 41 12 11 21 23 21 28 0 9
-63 39 -77 37 -4 -1 -26 -5 -48 -10z"/>
<path d="M1975 1100 c-22 -11 -45 -28 -52 -39 -11 -18 -9 -19 50 -14 78 7 96
21 64 51 l-23 22 -39 -20z"/>
<path d="M2455 1106 c-41 -18 -61 -44 -68 -89 -6 -37 -5 -38 44 -62 28 -15 59
-40 72 -60 12 -19 25 -35 28 -35 13 0 59 42 59 54 0 7 -10 26 -23 44 -13 17
-30 49 -37 72 -12 35 -11 42 4 59 15 17 15 19 1 25 -24 9 -46 7 -80 -8z"/>
<path d="M3024 1084 c3 -8 6 -20 6 -25 0 -6 5 -7 10 -4 15 10 12 32 -6 39 -12
5 -15 2 -10 -10z"/>
<path d="M3062 1024 c-28 -19 -28 -30 0 -70 16 -23 35 -36 64 -43 23 -6 47
-18 55 -27 21 -25 73 -44 121 -44 24 -1 61 -8 83 -16 57 -22 66 -22 75 2 14
37 -13 60 -113 93 -76 26 -97 37 -108 59 -27 55 -39 62 -98 62 -35 0 -65 -6
-79 -16z"/>
<path d="M1825 980 c-3 -5 -2 -10 4 -10 5 0 13 5 16 10 3 6 2 10 -4 10 -5 0
-13 -4 -16 -10z"/>
<path d="M2238 973 c-22 -6 -27 -23 -17 -51 8 -20 13 -23 41 -17 82 17 106 69
33 72 -22 0 -47 -1 -57 -4z"/>
<path d="M3000 952 c0 -13 23 -32 39 -32 11 0 10 4 -4 20 -19 21 -35 26 -35
12z"/>
<path d="M2094 886 c-30 -22 -13 -27 36 -10 58 20 61 24 19 24 -20 0 -44 -6
-55 -14z"/>
</g>
</svg>
